# xmcd CD database file
# Copyright (C) 1995-1998 Ti Kan
#
# Track frame offsets:
#	150
#	19685
#	39090
#	68095
#
# Disc length: 1166 seconds
#
# Revision: 1
# Processed by: cddbd v1.5PL3 Copyright (c) Steve Scherf et al.
# Submitted via: CDex 1.3.1JRelease
#
DISCID=24048c04
DTITLE=SURFACE - アイムファインセンキューアンジュー？
DYEAR=1900
DGENRE=Rhythmic Soul
TTITLE0=アイムファインセンキューアンジュー？
TTITLE1=きっと
TTITLE2=alibi〜the sequel〜 (Lights OFF remix)
TTITLE3=アイムファインセンキューアンジュー？(instrumental)
EXTD=ID3G: 118
EXTT0=
EXTT1=
EXTT2=
EXTT3=
PLAYORDER=
